<?xml version="1.0" encoding="UTF-8"?>
<svg id="Layer_2" data-name="Layer 2" xmlns="http://www.w3.org/2000/svg" viewBox="0 0 343.42 342.99">
  <defs>
    <style>
      .cls-1 {
        fill: #2a3036;
      }

      .cls-2 {
        fill: #fff;
      }
    </style>
  </defs>
  <g id="Layer_1-2" data-name="Layer 1">
    <g id="Generative_Object" data-name="Generative Object">
      <path d="M187.54.42c2.12.17,4.65.52,6.83.76,1.57.15,3.67.53,5.31.76,1.4.2,3.12.51,4.55.76.54.1,1.97.54,3.04.76,1.17.21,2.61.51,3.8.76.88.18,2.09.53,3.04.76s2.09.5,3.04.76c.41.11,1.41.51,2.28.76,1.01.28,2.1.48,3.04.76.66.2,1.54.53,2.28.76.7.22,1.55.52,2.28.76s1.55.51,2.28.76,1.58.5,2.28.76c.08.03.61.41,1.52.76,45.57,18.56,80.78,53.84,99.43,99.43.49,1.34,1.05,3.14,1.52,4.55.26.7.49,1.51.76,2.28.25.71.51,1.54.76,2.28s.54,1.58.76,2.28c.29.91.46,2,.76,3.04.24.91.7,2.03.76,2.28.24.99.54,2.1.76,3.04s.57,2.14.76,3.04c.26,1.21.53,2.6.76,3.8s.58,2.67.76,3.8c.24,1.46.56,3.15.76,4.55.2,1.68.63,3.76.76,5.31.32,2.61.56,5.73.76,8.35.37,7.51.37,16.78,0,24.29-.2,2.62-.44,5.74-.76,8.35-.14,1.57-.57,3.61-.76,5.31-.2,1.42-.52,3.08-.76,4.55-.18,1.13-.54,2.58-.76,3.8s-.51,2.6-.76,3.8c-.19.9-.53,2.05-.76,3.04s-.52,2.05-.76,3.04-.51,2.08-.76,3.04c-.1.37-.51,1.41-.76,2.28-.33,1.07-.46,2.14-.76,3.04-.25.73-.51,1.57-.76,2.28-.27.77-.5,1.58-.76,2.28-.03.08-.42.66-.76,1.52-.26.75-.5,1.57-.76,2.28-.42,1.14-1.05,2.61-1.52,3.8-19.12,43.69-51.36,75.66-94.88,94.88-1.22.47-2.64,1.1-3.8,1.52-.71.26-1.52.5-2.28.76s-1.56.53-2.28.76-1.57.54-2.28.76c-.74.23-1.6.56-2.28.76-.8.24-1.77.62-2.28.76-.87.25-1.91.66-2.28.76-.96.25-2.07.52-3.04.76s-2.09.54-3.04.76-2.12.56-3.04.76c-1.2.26-2.59.52-3.8.76s-2.64.56-3.8.76c-1.44.25-3.15.56-4.55.76-1.93.22-4.23.61-6.07.76-2.83.33-6.26.57-9.11.76-6.62.28-14.66.36-21.25,0-2.85-.16-6.23-.47-9.11-.76-1.58-.15-3.63-.54-5.31-.76-1.38-.18-3.11-.53-4.55-.76-1.42-.21-3.11-.51-4.55-.76-1.15-.2-2.61-.51-3.8-.76-.87-.18-2.08-.53-3.04-.76s-2.08-.51-3.04-.76c-.35-.09-1.37-.51-2.28-.76-1.01-.27-2.09-.48-3.04-.76-.66-.19-1.53-.53-2.28-.76-.69-.21-1.54-.52-2.28-.76s-1.56-.51-2.28-.76-1.57-.5-2.28-.76c-.08-.03-.59-.41-1.52-.76-45.74-18.24-79.83-52.16-99.43-97.16-.21-.47-.31-1.2-.76-2.28-.36-.98-.73-1.44-.76-1.52-.25-.71-.51-1.54-.76-2.28s-.53-1.57-.76-2.28c-.24-.75-.55-1.59-.76-2.28-.23-.75-.57-1.62-.76-2.28-.25-.84-.64-1.84-.76-2.28-.26-.95-.51-2.06-.76-3.04s-.54-2.1-.76-3.04c-.23-.98-.57-2.13-.76-3.04-.21-.99-.59-2.17-.76-3.04-.24-1.23-.54-2.6-.76-3.8s-.57-2.65-.76-3.8c-.28-1.68-.52-3.62-.76-5.31-.22-1.94-.61-4.23-.76-6.07-.38-3.72-.65-8.42-.76-12.14-.07-3.51-.1-7.11,0-10.63.11-3.55.47-7.79.76-11.39.17-1.86.52-4.16.76-6.07.19-1.63.51-3.64.76-5.31.21-1.43.51-3.1.76-4.55.19-1.14.52-2.6.76-3.8.17-.86.54-2.07.76-3.04.21-.92.52-2.08.76-3.04s.5-2.08.76-3.04c.11-.41.52-1.46.76-2.28.29-1.03.48-2.1.76-3.04.21-.68.52-1.53.76-2.28.22-.7.52-1.56.76-2.28s.5-1.57.76-2.28c.03-.08.41-.58.76-1.52C28.78,66.05,64.28,29.73,110.12,11.05c.57-.23,1.35-.4,2.28-.76.69-.27,1.49-.47,2.28-.76.7-.26,1.52-.49,2.28-.76.71-.25,1.55-.52,2.28-.76s1.59-.55,2.28-.76c.75-.23,1.61-.56,2.28-.76.94-.28,2.01-.48,3.04-.76.94-.24,2.1-.72,2.28-.76,1.18-.27,2.57-.51,3.8-.76.98-.22,2.15-.58,3.04-.76,1.2-.25,2.62-.55,3.8-.76s2.68-.59,3.8-.76c1.66-.26,3.68-.56,5.31-.76,2.17-.2,4.78-.64,6.83-.76,9.48-.56,22.41-.57,31.88,0Z"/>
      <g>
        <path class="cls-2" d="M99.5,80.88c.95.14,2.86.51,3.8.76.33.09,1.75.57,2.28.76.72.25,1.7.51,2.28.76,1.9.82,7.1,3.96,8.73,5.31,6.85,5.67,4.34,10.74,14.04,9.87,1.83-.16,2.16-.74,2.28-.76,1.29-.2,2.51-.67,3.04-.76,1.24-.21,2.41-.64,3.04-.76,1.17-.22,2.43-.65,3.04-.76,1.27-.23,2.58-.54,3.8-.76s2.66-.58,3.8-.76c1.64-.27,3.69-.56,5.31-.76,2.54-.23,5.09-.52,7.59-.76,5.1.65,6.65,4.76,4.55,9.49-.53,1.2-9.51,1.64-11.39,1.9-2.68.28-4.85.3-7.59.76-2.27.35-3.65.03-6.07.76-3.27.99-6.38,1.02-4.55,6.45,1.3,3.86,5.11,1.95,6.83,1.9,2.29.19,4.21-.71,5.31-.76,3.02-.24,6.12-.53,9.11-.76,1.47.08,7.8-.4,8.35.38-.57,4.4,2.07,8.13-3.04,9.49-2.25.6-5.72.34-8.35.76-2.44.32-4.29.23-6.83.76-1.74.34-2.35,0-4.55.76-1.06.36-1.66-.55-3.04,1.14-.11.6.16,1.42,0,1.9-.52,1.58-.78.34,0,2.28,2.15,5.3,4.89,2.46,9.11,2.28,2.41,0,4.66-.65,6.83-.76,18.44-.4,4.27,4.3,12.52,14.42h3.8c8.18-10.43-5.93-15.27,13.28-14.42,1.55.08,3.46.72,5.31.76,4.81.24,8.22,3.35,9.87-3.04,0-.04,1.61-.38,0-.76v-1.9c-.88-1.51-1.87-1.41-3.04-1.9-2.34-.98-2.89-.4-4.55-.76-2.31-.53-3.86-.46-6.07-.76-2.5-.4-9.36-.2-10.63-.76-2.73-1.2-1.1-6.7-1.52-9.49.5-.7,8.34-.4,9.87-.38,2.42.17,5.09.56,7.59.76,1.42.05,3.56,1.06,6.07.76,4.29.16,4.53,1.89,6.07-3.04.45-1.44.83-.28,0-2.28-1.63-3.93-1.43-2.27-4.55-3.04-2.33-.57-3.87-.43-6.07-.76-2.43-.38-4.44-.49-6.83-.76-2.11-.28-10.9-.46-11.39-.76-1.44-.89-.48-7.63-.76-9.49,1.19-1.81,2.94-.93,4.55-1.14,2.51.24,5.03.55,7.59.76,1.89.21,4.2.46,6.07.76,1.12.18,2.58.54,3.8.76s2.53.53,3.8.76c.59.11,1.85.54,3.04.76.58.11,1.81.55,3.04.76.52.09,1.74.56,3.04.76.12.02.45.6,2.28.76,9.85.88,7.45-5.01,14.8-10.63.95-.73,8.61-5.03,9.49-5.31.76-.25,2.21-.57,3.04-.76.69-.15,3.49-.73,3.8-.76,1.85-.18,6.72-.32,8.35,0,.12.02,1.95.63,2.28.76,2.76,1.07,6.52,6.25,7.59,9.11.08.22.64,3.76.76,4.55.2,2.04.08,4.73,0,6.83-.15,1.95-.42,4.93-.76,6.83-.09.48-.56,2.3-.76,3.04-.1.37-.53,1.51-.76,2.28-1.69,4.37-9.64,13.94-9.87,14.8-1.41,5.21,7.79,19.86,9.87,25.43.66,1.85,1.83,4.62,2.28,6.07.21.7.71,2.06.76,2.28.25,1.01.74,2.16.76,2.28.19,1.05.74,2.88.76,3.04.17,1.87.08,4.17,0,6.07-.06,1.37-.58,3.75-.76,5.31-.16,1.31-.52,3.18-.76,4.55-.09.51-.55,2.01-.76,3.04-.18.88-.54,2.05-.76,3.04-.21.92-.52,2.08-.76,3.04s-.5,2.11-.76,3.04c-.17.59-.53,1.54-.76,2.28-.21.68-.52,1.56-.76,2.28s-.51,1.56-.76,2.28c-.39,1.12-1.05,2.59-1.52,3.8-1.86,4.13-12.77,25.04-16.32,25.81-8.5,1.84-11.7-25.6-18.6-18.22-1.09,1.16.06-.07,0,.76-.55,4.33.75,10.35,0,14.42-.02.12-.58,1.73-.76,2.28-1.19,3.61-9.29,11.04-12.9,12.14-.45.14-2.73.71-3.04.76-2.12.36-9.95.32-12.14,0-.19-.03-2.46-.6-3.04-.76-.29-.08-1.97-.64-2.28-.76-2.38-.96-11.6-8.89-12.14-11.39-1.52-7.02,13.82-10.25,17.46-17.84.9-1.88,3.08-8.29.38-9.49-2.05-.91-42.74-.91-44.78,0-6.29,2.78,5.24,14.66,7.59,16.7,3.53,3.06,11.06,4.24,10.25,9.11-.52,3.12-10.42,12.34-13.66,13.66-.23.09-2.16.73-2.28.76-.44.11-4.94.74-5.31.76-.75.04-1.53.03-2.28,0-.34-.01-4.75-.64-5.31-.76-.54-.12-2.84-.68-3.04-.76-3.32-1.3-11.79-8.92-12.9-12.14-.07-.22-.73-2.87-.76-3.04-.39-2.38.15-5.75,0-8.35-.01-.19,1.1-1.69.76-3.8.02-.24,1.09.55,0-1.52-.24-.45.41-1.95-.38-2.28-8.05-3.31-11.16,21.79-19.73,19.73-3.13-.75-13.79-21.17-15.56-25.05-.47-1.12-1.11-2.68-1.52-3.8-.3-.73-.73-1.43-.76-1.52-.27-.67-.47-1.49-.76-2.28-.25-.69-.51-1.54-.76-2.28s-.54-1.59-.76-2.28c-.28-.9-.48-2.03-.76-3.04-.24-.92-.7-2.05-.76-2.28-.23-.96-.57-2.15-.76-3.04-.25-1.16-.57-2.67-.76-3.8-.21-1.22-.6-2.7-.76-3.8-.21-1.41-.62-3.27-.76-4.55-.04-2.32-.27-5.4,0-7.59.01-.12.51-.89.76-2.28.02-.12.51-1.18.76-2.28.03-.13.53-1.4.76-2.28.09-.36.52-1.44.76-2.28.17-.6,1.05-2.37,1.52-3.8,2.69-6.64,8.87-15.73,9.87-22.77.12-.81.45.49,0-1.52-1-4.42-7.93-10.9-9.87-16.7-.24-.84-.58-2.19-.76-3.04-.27-1.24-.61-3.32-.76-4.55-.25-3.12-.38-9.15,0-12.14.02-.16.58-2.24.76-3.04,1.52-4.08,5.41-8.91,9.87-9.87,1.75-.37,6.26-.09,8.35,0Z"/>
        <g>
          <path class="cls-1" d="M123.78,143.88c.16,0,1.5.62,3.04.76.16.01,1.85.58,3.04.76.12.02.65.55,2.28.76,1.12.21,2.72.49,3.8.76,2.16.4,4.01.43,6.07.76,2.86.63,5.81.67,8.35,2.28-1.05,9.66,4.62,21.42-9.87,18.98-.12-.02-1.8-.59-2.28-.76-4.56-1.56-25.13-20.92-15.94-24.29.32-.12,1.03.02,1.52,0Z"/>
          <path class="cls-1" d="M220.94,143.88c8.95,3.34-11.38,22.6-16.7,24.29-.58.18-2.16.74-2.28.76-14.2,2.05-7.75-9.05-9.11-18.6,1.76-2.36,4.72-2.01,7.59-2.66,2.34-.36,4.36-.28,6.83-.76.9-.21,2.5-.66,3.04-.76,1.13-.21,2.57-.68,3.04-.76,1.53-.24,2.16-.75,2.28-.76,1.59-.12,2.88-.76,3.04-.76.7.02,1.83-.17,2.28,0Z"/>
          <path class="cls-1" d="M104.81,178.8c.23,2.12.46,3.97.76,6.07.19,1.28.59,2.67.76,3.8.18,1.14.57,2.09.76,3.04.21,1.67.74,2.16.76,2.28.23,1.68.76,2.16.76,2.28-.03,5.37-3.51,8.7-7.59,3.8-.08-.09-.22-1.13-.76-2.28-.14-.31-.45-1.44-.76-2.28-.27-.72-.45-2.01-.76-3.04-.26-.87-.54-2.13-.76-3.04-.26-1.08-.58-2.72-.76-3.8-.3-1.79-.58-4.27-.76-6.07-.05-2.58-.51-9.47,0-11.39.18-.66,1.9-3.54,2.66-3.8,6.55-2.17,5.01,10.29,5.69,14.42Z"/>
          <path class="cls-1" d="M246.75,168.93c.48,2.1,0,7.29,0,9.87-.17,2.01-.43,4.86-.76,6.83-.18,1.07-.5,2.73-.76,3.8-.23.94-.51,2.1-.76,3.04s-.49,2.31-.76,3.04c-.3.81-.69,2.14-.76,2.28-3.18,6.14-8.09,6.28-8.35-.76,0-.16.58-1.7.76-3.04.02-.12.56-.6.76-2.28.15-.74.55-1.68.76-3.04.16-1.12.57-2.52.76-3.8.3-2.1.53-3.96.76-6.07.67-4.11-.85-16.61,5.69-14.42,1.14.38,2.43,3.55,2.66,4.55Z"/>
          <path class="cls-1" d="M119.99,176.52c.22,1.84.65,4.34.76,6.07.18,1.38.68,3.11.76,3.8.12,1.64.77,2.88.76,3.04-.18,2.15-.48,5.4-3.04,6.07-.34.09-1.14.08-1.52,0-1.33-.29-3.25-3.26-3.8-4.55-.17-.41-.31-2.28-.76-3.8-.29-.97-.54-2.69-.76-3.8-.29-1.45-.6-3.84-.76-5.31-.01-2.15-.42-6.65,0-8.35.61-2.51,3.41-6.51,6.45-3.8,1.54,1.38,1.38,7.98,1.9,10.63Z"/>
          <path class="cls-1" d="M231.57,169.69c.37,1.48-.03,4.95,0,6.83-.16,1.98-.43,4.88-.76,6.83-.19,1.1-.51,2.68-.76,3.8-.2.87-.51,2.19-.76,3.04-.99,2.05-1.7,4.03-3.8,5.31-.49-.05-1.08.1-1.52,0-3.25-.75-2.92-4.4-3.04-6.83,0-.12.58-.41.76-2.28.17-1.14.58-2.49.76-3.8.1-1.45.56-3.71.76-5.31.56-2.79.31-9.97,1.9-11.39,3.05-2.73,5.82,1.3,6.45,3.8Z"/>
        </g>
      </g>
      <path class="cls-2" d="M186.03,251.67c.94.37,1.35.48,2.28.76,1.14.36,1.99.47,3.04.76,1.73.42,2.89.48,4.55.76,1.96.48,3.55,1.21,5.69.76.79.56.25,3.47.38,4.55-.15,1.25-.43,4.31-.76,5.31-1,3.04-6.22,10.24-9.11,11.39-.15.06-2.79.72-3.04.76-4.19.74-29.93.73-34.16,0-.21-.04-2.89-.7-3.04-.76-2.49-.96-8.17-8.01-9.11-10.63-.1-.29-.65-5.07-.76-6.07.96-7.29.69-3.44,8.35-5.31,1.44-.21,2.42-.45,3.8-.76.83-.27,1.43-.44,2.28-.76,7.33-2.02,14.62-9.95,15.56-9.87.43.04,4.11,4.96,6.07,6.07,2.53,1.43,5.26,2.09,7.97,3.04Z"/>
    </g>
  </g>
</svg>